<?xml version="1.0" encoding="UTF-8" standalone="no"?>
<!DOCTYPE svg PUBLIC "-//W3C//DTD SVG 1.1//EN"
 "http://www.w3.org/Graphics/SVG/1.1/DTD/svg11.dtd">
<!-- Generated by graphviz version 2.47.0 (20210316.0004)
 -->
<!-- Title: dependencies Pages: 1 -->
<svg width="951pt" height="211pt"
 viewBox="0.00 0.00 951.00 211.00" xmlns="http://www.w3.org/2000/svg" xmlns:xlink="http://www.w3.org/1999/xlink">
<g id="graph0" class="graph" transform="scale(1 1) rotate(0) translate(4 207)">
<title>dependencies</title>
<polygon fill="white" stroke="transparent" points="-4,4 -4,-207 947,-207 947,4 -4,4"/>
<text text-anchor="start" x="450.51" y="-42.4" font-family="sans-serif" font-weight="bold" font-size="14.00">Legend</text>
<polygon fill="#ffffb3" stroke="transparent" points="237.5,-10 237.5,-30 257.5,-30 257.5,-10 237.5,-10"/>
<text text-anchor="start" x="261.13" y="-15.4" font-family="sans-serif" font-size="14.00"> &#160;Declarations</text>
<polygon fill="#8dd3c7" stroke="transparent" points="350.5,-10 350.5,-30 370.5,-30 370.5,-10 350.5,-10"/>
<text text-anchor="start" x="374.23" y="-15.4" font-family="sans-serif" font-size="14.00"> &#160;Module</text>
<polygon fill="#80b1d3" stroke="transparent" points="436.5,-10 436.5,-30 456.5,-30 456.5,-10 436.5,-10"/>
<text text-anchor="start" x="460.28" y="-15.4" font-family="sans-serif" font-size="14.00"> &#160;Bootstrap</text>
<polygon fill="#fdb462" stroke="transparent" points="533.5,-10 533.5,-30 553.5,-30 553.5,-10 533.5,-10"/>
<text text-anchor="start" x="557.17" y="-15.4" font-family="sans-serif" font-size="14.00"> &#160;Providers</text>
<polygon fill="#fb8072" stroke="transparent" points="629.5,-10 629.5,-30 649.5,-30 649.5,-10 629.5,-10"/>
<text text-anchor="start" x="653.23" y="-15.4" font-family="sans-serif" font-size="14.00"> &#160;Exports</text>
<g id="clust1" class="cluster">
<title>cluster_AppModule</title>
<polygon fill="none" stroke="black" stroke-dasharray="1,5" points="8,-70 8,-195 935,-195 935,-70 8,-70"/>
</g>
<g id="clust3" class="cluster">
<title>cluster_AppModule_imports</title>
<polygon fill="none" stroke="black" points="16,-78 16,-130 927,-130 927,-78 16,-78"/>
</g>
<!-- AuthModule -->
<g id="node1" class="node">
<title>AuthModule</title>
<polygon fill="#8dd3c7" stroke="black" points="918.55,-122 915.55,-126 894.55,-126 891.55,-122 831.45,-122 831.45,-86 918.55,-86 918.55,-122"/>
<text text-anchor="middle" x="875" y="-99.8" font-family="Times,serif" font-size="14.00">AuthModule</text>
</g>
<!-- AppModule -->
<g id="node9" class="node">
<title>AppModule</title>
<polygon fill="#8dd3c7" stroke="black" points="463.66,-187 460.66,-191 439.66,-191 436.66,-187 380.34,-187 380.34,-151 463.66,-151 463.66,-187"/>
<text text-anchor="middle" x="422" y="-164.8" font-family="Times,serif" font-size="14.00">AppModule</text>
</g>
<!-- AuthModule&#45;&gt;AppModule -->
<g id="edge1" class="edge">
<title>AuthModule&#45;&gt;AppModule</title>
<path fill="none" stroke="black" d="M875,-122.01C875,-144.49 875,-180 875,-180 875,-180 473.81,-180 473.81,-180"/>
<polygon fill="black" stroke="black" points="473.81,-176.5 463.81,-180 473.81,-183.5 473.81,-176.5"/>
</g>
<!-- CompanyModule -->
<g id="node2" class="node">
<title>CompanyModule</title>
<polygon fill="#8dd3c7" stroke="black" points="812.99,-122 809.99,-126 788.99,-126 785.99,-122 699.01,-122 699.01,-86 812.99,-86 812.99,-122"/>
<text text-anchor="middle" x="756" y="-99.8" font-family="Times,serif" font-size="14.00">CompanyModule</text>
</g>
<!-- CompanyModule&#45;&gt;AppModule -->
<g id="edge2" class="edge">
<title>CompanyModule&#45;&gt;AppModule</title>
<path fill="none" stroke="black" d="M756,-122.13C756,-142.57 756,-173 756,-173 756,-173 473.96,-173 473.96,-173"/>
<polygon fill="black" stroke="black" points="473.96,-169.5 463.96,-173 473.96,-176.5 473.96,-169.5"/>
</g>
<!-- CoreModule -->
<g id="node3" class="node">
<title>CoreModule</title>
<polygon fill="#8dd3c7" stroke="black" points="681.26,-122 678.26,-126 657.26,-126 654.26,-122 594.74,-122 594.74,-86 681.26,-86 681.26,-122"/>
<text text-anchor="middle" x="638" y="-99.8" font-family="Times,serif" font-size="14.00">CoreModule</text>
</g>
<!-- CoreModule&#45;&gt;AppModule -->
<g id="edge3" class="edge">
<title>CoreModule&#45;&gt;AppModule</title>
<path fill="none" stroke="black" d="M638,-122.27C638,-140.56 638,-166 638,-166 638,-166 473.9,-166 473.9,-166"/>
<polygon fill="black" stroke="black" points="473.9,-162.5 463.9,-166 473.9,-169.5 473.9,-162.5"/>
</g>
<!-- JobModule -->
<g id="node4" class="node">
<title>JobModule</title>
<polygon fill="#8dd3c7" stroke="black" points="576.49,-122 573.49,-126 552.49,-126 549.49,-122 497.51,-122 497.51,-86 576.49,-86 576.49,-122"/>
<text text-anchor="middle" x="537" y="-99.8" font-family="Times,serif" font-size="14.00">JobModule</text>
</g>
<!-- JobModule&#45;&gt;AppModule -->
<g id="edge4" class="edge">
<title>JobModule&#45;&gt;AppModule</title>
<path fill="none" stroke="black" d="M537,-122.01C537,-138.05 537,-159 537,-159 537,-159 473.84,-159 473.84,-159"/>
<polygon fill="black" stroke="black" points="473.84,-155.5 463.84,-159 473.84,-162.5 473.84,-155.5"/>
</g>
<!-- LanguageModule -->
<g id="node5" class="node">
<title>LanguageModule</title>
<polygon fill="#8dd3c7" stroke="black" points="479.25,-122 476.25,-126 455.25,-126 452.25,-122 364.75,-122 364.75,-86 479.25,-86 479.25,-122"/>
<text text-anchor="middle" x="422" y="-99.8" font-family="Times,serif" font-size="14.00">LanguageModule</text>
</g>
<!-- LanguageModule&#45;&gt;AppModule -->
<g id="edge5" class="edge">
<title>LanguageModule&#45;&gt;AppModule</title>
<path fill="none" stroke="black" d="M422,-122.11C422,-122.11 422,-140.99 422,-140.99"/>
<polygon fill="black" stroke="black" points="418.5,-140.99 422,-150.99 425.5,-140.99 418.5,-140.99"/>
</g>
<!-- ReviewModule -->
<g id="node6" class="node">
<title>ReviewModule</title>
<polygon fill="#8dd3c7" stroke="black" points="346.31,-122 343.31,-126 322.31,-126 319.31,-122 243.69,-122 243.69,-86 346.31,-86 346.31,-122"/>
<text text-anchor="middle" x="295" y="-99.8" font-family="Times,serif" font-size="14.00">ReviewModule</text>
</g>
<!-- ReviewModule&#45;&gt;AppModule -->
<g id="edge6" class="edge">
<title>ReviewModule&#45;&gt;AppModule</title>
<path fill="none" stroke="black" d="M312.05,-122.01C312.05,-138.05 312.05,-159 312.05,-159 312.05,-159 370.12,-159 370.12,-159"/>
<polygon fill="black" stroke="black" points="370.12,-162.5 380.12,-159 370.12,-155.5 370.12,-162.5"/>
</g>
<!-- ReviewModule&#45;&gt;AppModule -->
<g id="edge7" class="edge">
<title>ReviewModule&#45;&gt;AppModule</title>
<path fill="none" stroke="black" d="M277.95,-122.27C277.95,-140.56 277.95,-166 277.95,-166 277.95,-166 370.33,-166 370.33,-166"/>
<polygon fill="black" stroke="black" points="370.33,-169.5 380.33,-166 370.33,-162.5 370.33,-169.5"/>
</g>
<!-- SearchModule -->
<g id="node7" class="node">
<title>SearchModule</title>
<polygon fill="#8dd3c7" stroke="black" points="225.64,-122 222.64,-126 201.64,-126 198.64,-122 128.36,-122 128.36,-86 225.64,-86 225.64,-122"/>
<text text-anchor="middle" x="177" y="-99.8" font-family="Times,serif" font-size="14.00">SearchModule</text>
</g>
<!-- SearchModule&#45;&gt;AppModule -->
<g id="edge8" class="edge">
<title>SearchModule&#45;&gt;AppModule</title>
<path fill="none" stroke="black" d="M177,-122.13C177,-142.57 177,-173 177,-173 177,-173 370.16,-173 370.16,-173"/>
<polygon fill="black" stroke="black" points="370.16,-176.5 380.16,-173 370.16,-169.5 370.16,-176.5"/>
</g>
<!-- UserModule -->
<g id="node8" class="node">
<title>UserModule</title>
<polygon fill="#8dd3c7" stroke="black" points="109.98,-122 106.98,-126 85.98,-126 82.98,-122 24.02,-122 24.02,-86 109.98,-86 109.98,-122"/>
<text text-anchor="middle" x="67" y="-99.8" font-family="Times,serif" font-size="14.00">UserModule</text>
</g>
<!-- UserModule&#45;&gt;AppModule -->
<g id="edge9" class="edge">
<title>UserModule&#45;&gt;AppModule</title>
<path fill="none" stroke="black" d="M67,-122.01C67,-144.49 67,-180 67,-180 67,-180 370.23,-180 370.23,-180"/>
<polygon fill="black" stroke="black" points="370.23,-183.5 380.23,-180 370.23,-176.5 370.23,-183.5"/>
</g>
</g>
</svg>
